<mxfile host="app.diagrams.net" modified="2023-06-20T06:13:32.199Z" agent="Mozilla/5.0 (Macintosh; Intel Mac OS X 10_15_7) AppleWebKit/537.36 (KHTML, like Gecko) Chrome/114.0.0.0 Safari/537.36" version="21.3.7" etag="nLr3ex22JC8ZsNwKcHFy" type="github">
  <diagram name="第 1 页" id="Vt5ajGIsoaIyoTmPp9kC">
    <mxGraphModel>
      <root>
        <mxCell id="0" />
        <mxCell id="1" parent="0" />
      </root>
    </mxGraphModel>
  </diagram>
</mxfile>
